<svg width="60" height="60" viewBox="0 0 60 60" fill="none" xmlns="http://www.w3.org/2000/svg">
<path d="M42.5 30.2858C38.3594 30.2858 35 26.9264 35 22.7858C35 18.6451 38.3594 15.2858 42.5 15.2858C46.6406 15.2858 50 18.6451 50 22.7858C50 26.9264 46.6406 30.2858 42.5 30.2858ZM42.5 19.0358C40.3906 19.0358 38.75 20.7545 38.75 22.7858C38.75 24.8951 40.3906 26.5358 42.5 26.5358C44.5312 26.5358 46.25 24.8951 46.25 22.7858C46.25 20.7545 44.5312 19.0358 42.5 19.0358ZM26.25 31.8483C29.0625 31.8483 31.7969 33.1764 33.4375 35.5201C34.375 37.0045 35 38.7233 35 40.5983V44.0358C35 46.1451 33.2812 47.7858 31.25 47.7858H8.75C6.64062 47.7858 5 46.1451 5 44.0358V40.5983C5 38.7233 5.54688 37.0045 6.48438 35.5201C8.125 33.1764 10.8594 31.8483 13.6719 31.8483C14.6094 31.8483 15.5469 32.0045 16.4844 32.317C17.5781 32.6295 18.75 32.7858 19.9219 32.7858C21.1719 32.7858 22.3438 32.6295 23.4375 32.317C24.375 32.0045 25.3125 31.8483 26.25 31.8483ZM31.25 44.0358V40.5983C31.25 38.3326 29.7656 36.3795 27.8125 35.6764C26.9531 35.3639 26.0938 35.3639 25.3125 35.6764C23.5156 36.2233 21.7969 36.5358 20 36.5358C18.2031 36.5358 16.4062 36.2233 14.6875 35.6764C13.8281 35.3639 12.9688 35.3639 12.1875 35.6764C10.1562 36.3795 8.75 38.3326 8.75 40.5983V44.0358H31.25ZM20 30.2858C15.1562 30.2858 11.25 26.3795 11.25 21.5358C11.25 16.7701 15.1562 12.7858 20 12.7858C24.7656 12.7858 28.75 16.7701 28.75 21.5358C28.75 26.3795 24.7656 30.2858 20 30.2858ZM20 16.5358C17.1875 16.5358 15 18.8014 15 21.5358C15 24.3483 17.1875 26.5358 20 26.5358C22.7344 26.5358 25 24.3483 25 21.5358C25 18.8014 22.7344 16.5358 20 16.5358ZM53.6719 35.1295C54.5312 36.3014 55 37.7076 55 39.2701V42.1608C55 43.9576 53.5938 45.2858 51.875 45.2858H37.3438C37.4219 44.8951 37.5 44.5045 37.5 44.0358V41.5358H51.25V39.2701C51.25 38.4889 51.0156 37.7858 50.5469 37.1608C50 36.3014 48.9062 35.7545 47.6562 35.7545C46.3281 35.7545 45.3906 36.5358 42.5 36.5358C39.5312 36.5358 38.5938 35.7545 37.2656 35.7545C36.9531 35.7545 36.7188 35.8326 36.4844 35.8326C36.1719 35.2858 35.8594 34.6608 35.5469 34.1139C35.1562 33.6451 34.6875 33.0983 34.2969 32.7076C35.2344 32.2389 36.1719 32.0045 37.2656 32.0045C39.4531 32.0045 40 32.7858 42.5 32.7858C45 32.7858 45.5469 32.0045 47.6562 32.0045C50.0781 32.0045 52.3438 33.0983 53.6719 35.1295Z" fill="#A5A9B5"/>
</svg>
