<svg width="40" height="40" viewBox="0 0 40 40" fill="none" xmlns="http://www.w3.org/2000/svg">
<circle cx="20" cy="20" r="20" fill="#00A6E6"/>
<path d="M27.9654 18.84C27.9654 19.4533 27.8921 20.06 27.7454 20.66C27.5987 21.26 27.3721 21.8067 27.0654 22.3C26.7721 22.7933 26.3987 23.1867 25.9454 23.48C25.4921 23.76 24.9587 23.9 24.3454 23.9C23.8521 23.9 23.4187 23.7867 23.0454 23.56C22.6721 23.32 22.4121 23.0133 22.2654 22.64H22.1054C21.8387 22.9733 21.4787 23.2667 21.0254 23.52C20.5854 23.7733 20.0521 23.9 19.4254 23.9C18.2387 23.9 17.3187 23.5467 16.6654 22.84C16.0254 22.12 15.7054 21.18 15.7054 20.02C15.7054 19.1267 15.8987 18.34 16.2854 17.66C16.6721 16.9667 17.2187 16.4267 17.9254 16.04C18.6321 15.64 19.4654 15.44 20.4254 15.44C21.0521 15.44 21.6987 15.5 22.3654 15.62C23.0454 15.7267 23.5721 15.8467 23.9454 15.98L23.7454 20.08C23.7321 20.2133 23.7254 20.3533 23.7254 20.5C23.7254 20.6333 23.7254 20.72 23.7254 20.76C23.7254 21.3067 23.7987 21.6733 23.9454 21.86C24.1054 22.0333 24.2787 22.12 24.4654 22.12C24.7721 22.12 25.0254 21.9733 25.2254 21.68C25.4254 21.3733 25.5721 20.9733 25.6654 20.48C25.7721 19.9733 25.8254 19.42 25.8254 18.82C25.8254 17.7 25.5987 16.7533 25.1454 15.98C24.6921 15.1933 24.0721 14.5933 23.2854 14.18C22.5121 13.7667 21.6254 13.56 20.6254 13.56C19.5721 13.56 18.6454 13.7267 17.8454 14.06C17.0454 14.3933 16.3721 14.86 15.8254 15.46C15.2787 16.06 14.8654 16.7667 14.5854 17.58C14.3187 18.3933 14.1854 19.28 14.1854 20.24C14.1854 21.44 14.3987 22.46 14.8254 23.3C15.2654 24.1267 15.8987 24.7533 16.7254 25.18C17.5654 25.6067 18.5921 25.82 19.8054 25.82C20.5787 25.82 21.3854 25.7333 22.2254 25.56C23.0654 25.3867 23.8321 25.1733 24.5254 24.92V26.8C23.8854 27.0667 23.1721 27.28 22.3854 27.44C21.5987 27.6 20.7654 27.68 19.8854 27.68C18.2321 27.68 16.8187 27.3867 15.6454 26.8C14.4721 26.2133 13.5721 25.3733 12.9454 24.28C12.3321 23.1733 12.0254 21.8467 12.0254 20.3C12.0254 19.0867 12.2254 17.96 12.6254 16.92C13.0254 15.88 13.5987 14.9733 14.3454 14.2C15.1054 13.4133 16.0121 12.8067 17.0654 12.38C18.1187 11.94 19.2987 11.72 20.6054 11.72C21.6721 11.72 22.6521 11.8867 23.5454 12.22C24.4521 12.54 25.2321 13.0133 25.8854 13.64C26.5521 14.2533 27.0654 15 27.4254 15.88C27.7854 16.7467 27.9654 17.7333 27.9654 18.84ZM17.9654 20.06C17.9654 20.7933 18.1187 21.32 18.4254 21.64C18.7321 21.96 19.1387 22.12 19.6454 22.12C20.3121 22.12 20.7787 21.88 21.0454 21.4C21.3254 20.9067 21.4921 20.2667 21.5454 19.48L21.6654 17.32C21.5187 17.2933 21.3521 17.2733 21.1654 17.26C20.9787 17.2333 20.7721 17.22 20.5454 17.22C19.9187 17.22 19.4121 17.36 19.0254 17.64C18.6521 17.9067 18.3787 18.26 18.2054 18.7C18.0454 19.1267 17.9654 19.58 17.9654 20.06Z" fill="white"/>
</svg>
